<?xml version="1.0" standalone="no"?>
<!DOCTYPE svg PUBLIC "-//W3C//DTD SVG 20010904//EN"
 "http://www.w3.org/TR/2001/REC-SVG-20010904/DTD/svg10.dtd">
<svg version="1.0" xmlns="http://www.w3.org/2000/svg"
 width="300.000000pt" height="300.000000pt" viewBox="0 0 300.000000 300.000000"
 preserveAspectRatio="xMidYMid meet">
<metadata>
Created by potrace 1.14, written by Peter Selinger 2001-2017
</metadata>
<g transform="translate(0.000000,300.000000) scale(0.100000,-0.100000)"
fill="#000000" stroke="none">
<path d="M2776 2625 c-20 -14 -39 -25 -42 -25 -3 0 -10 -5 -17 -10 -7 -6 -43
-33 -82 -60 -38 -27 -79 -56 -90 -64 -69 -51 -172 -126 -180 -133 -5 -5 -30
-24 -55 -43 -25 -19 -50 -39 -56 -45 -7 -5 -31 -26 -55 -45 -152 -123 -260
-222 -407 -370 -63 -63 -153 -159 -200 -212 -85 -98 -93 -104 -106 -91 -3 4
-16 8 -27 10 -11 2 -33 10 -50 18 -16 9 -29 13 -29 11 0 -3 -26 4 -57 15 -32
11 -69 23 -82 25 -13 3 -32 9 -43 15 -10 5 -18 8 -18 5 0 -2 -22 2 -49 9 l-49
13 -7 -35 c-3 -19 -4 -37 -2 -40 3 -2 40 -13 84 -24 99 -26 95 -25 113 -32 8
-3 33 -11 55 -17 22 -6 47 -14 55 -17 16 -7 26 -10 38 -12 38 -7 33 -21 -34
-113 -145 -195 -242 -364 -339 -592 l-38 -88 -18 86 c-30 149 -88 301 -150
394 -16 24 -29 46 -29 49 0 8 -93 125 -127 159 -86 87 -245 208 -335 253 -16
8 -26 16 -24 19 12 11 364 1 434 -13 12 -2 22 -1 23 3 8 63 7 72 -9 73 -9 0
-26 2 -37 4 -23 5 -162 16 -185 15 -13 0 -77 0 -105 1 -5 0 -45 -2 -87 -4
-184 -11 -234 -25 -226 -65 3 -17 6 -19 138 -83 124 -59 237 -138 327 -227 86
-86 93 -93 150 -178 48 -71 75 -124 112 -224 47 -126 56 -160 74 -310 l12 -94
50 3 c58 3 68 8 61 27 -3 8 -2 14 2 14 4 0 8 8 9 17 4 52 143 363 194 435 11
14 19 29 19 33 0 10 132 206 195 290 l56 74 37 -16 c59 -24 99 -42 222 -100
77 -37 116 -51 118 -43 3 7 13 21 23 31 18 18 16 20 -104 78 -137 67 -179 85
-189 83 -5 -1 -8 2 -8 8 0 6 -3 9 -7 9 -36 -6 -44 17 -15 42 9 9 37 40 62 69
56 67 304 315 392 393 127 111 284 240 413 336 210 157 233 172 240 161 3 -5
-3 -36 -14 -68 -18 -52 -61 -210 -57 -213 0 -1 10 -3 21 -4 11 -2 26 -4 34 -6
10 -3 20 15 33 61 34 119 80 255 98 290 30 60 33 88 11 100 -26 13 -23 14 -65
-15z"/>
<path d="M2598 2110 c-46 -36 -39 -113 13 -141 32 -17 85 -2 107 29 55 80 -44
173 -120 112z"/>
<path d="M2596 1893 c-9 -30 -19 -199 -20 -353 l-1 -144 -40 -9 c-45 -11 -348
-97 -352 -101 -3 -3 17 -76 21 -76 2 0 29 9 62 20 78 28 314 90 339 90 45 1
46 5 50 246 2 126 6 253 10 283 6 50 5 53 -13 49 -10 -3 -26 -1 -35 3 -11 7
-17 4 -21 -8z"/>
<path d="M885 1710 c-81 -53 -24 -176 69 -149 17 5 32 9 32 9 1 0 9 15 18 34
38 80 -46 154 -119 106z"/>
<path d="M1992 1270 c-45 -44 -37 -107 16 -134 50 -26 107 -2 121 49 10 38 4
58 -23 84 -35 33 -82 34 -114 1z"/>
<path d="M1797 1124 c-179 -90 -302 -168 -442 -282 -95 -78 -224 -208 -266
-268 l-29 -43 30 -18 c16 -9 30 -20 30 -23 0 -3 4 -11 9 -19 7 -10 23 -2 72
36 161 126 344 209 588 268 103 25 123 29 279 50 81 12 189 18 341 19 160 1
164 2 174 24 8 18 6 26 -9 40 -28 26 -162 125 -214 158 -25 16 -47 31 -50 34
-12 12 -101 70 -108 70 -4 0 -15 -13 -25 -29 l-17 -30 102 -70 c57 -39 116
-81 133 -94 l29 -25 -69 0 c-104 -1 -309 -17 -345 -27 -8 -2 -37 -7 -65 -10
-27 -3 -87 -14 -132 -25 -46 -11 -93 -21 -105 -24 -80 -15 -319 -115 -428
-178 -32 -19 -30 -16 15 28 59 57 109 101 149 129 16 11 34 25 41 32 31 30
194 129 311 189 71 36 131 68 133 70 7 6 -24 64 -34 64 -5 -1 -50 -21 -98 -46z"/>
<path d="M958 465 c-35 -19 -46 -70 -24 -113 17 -33 34 -42 75 -42 78 0 109
113 42 153 -35 21 -57 21 -93 2z"/>
</g>
</svg>
