<?xml version="1.0" encoding="UTF-8" standalone="no"?>
<!DOCTYPE svg PUBLIC "-//W3C//DTD SVG 1.1//EN" "http://www.w3.org/Graphics/SVG/1.1/DTD/svg11.dtd">
<svg width="100%" height="100%" viewBox="0 0 260 241" version="1.1" xmlns="http://www.w3.org/2000/svg" xmlns:xlink="http://www.w3.org/1999/xlink" xml:space="preserve" xmlns:serif="http://www.serif.com/" style="fill-rule:evenodd;clip-rule:evenodd;stroke-linecap:round;stroke-linejoin:round;">
    <g transform="matrix(1,0,0,1,-119.5,-119.5)">
        <path d="M366,120L264.9,195L283.7,150.8L366,120Z" style="fill:rgb(225,119,38);fill-rule:nonzero;stroke:rgb(225,119,38);stroke-width:1px;"/>
        <g>
            <path d="M132.8,120L233,195.7L215.1,150.8L132.8,120Z" style="fill:rgb(226,118,37);fill-rule:nonzero;stroke:rgb(226,118,37);stroke-width:1px;"/>
            <path d="M329.6,293.9L302.7,335.1L360.3,351L376.8,294.8L329.6,293.9Z" style="fill:rgb(226,118,37);fill-rule:nonzero;stroke:rgb(226,118,37);stroke-width:1px;"/>
            <path d="M122.1,294.8L138.5,351L196,335.1L169.2,293.9L122.1,294.8Z" style="fill:rgb(226,118,37);fill-rule:nonzero;stroke:rgb(226,118,37);stroke-width:1px;"/>
            <path d="M192.9,224.3L176.9,248.5L233.9,251.1L232,189.6L192.9,224.3Z" style="fill:rgb(226,118,37);fill-rule:nonzero;stroke:rgb(226,118,37);stroke-width:1px;"/>
            <path d="M305.9,224.3L266.2,188.9L264.9,251.1L321.9,248.5L305.9,224.3Z" style="fill:rgb(226,118,37);fill-rule:nonzero;stroke:rgb(226,118,37);stroke-width:1px;"/>
            <path d="M196,335.1L230.5,318.4L200.8,295.2L196,335.1Z" style="fill:rgb(226,118,37);fill-rule:nonzero;stroke:rgb(226,118,37);stroke-width:1px;"/>
            <path d="M268.3,318.4L302.7,335.1L298,295.2L268.3,318.4Z" style="fill:rgb(226,118,37);fill-rule:nonzero;stroke:rgb(226,118,37);stroke-width:1px;"/>
        </g>
        <g>
            <path d="M302.7,335.1L268.3,318.4L271.1,340.8L270.8,350.3L302.7,335.1Z" style="fill:rgb(213,191,178);fill-rule:nonzero;stroke:rgb(213,191,178);stroke-width:1px;"/>
            <path d="M196,335.1L228,350.3L227.8,340.8L230.5,318.4L196,335.1Z" style="fill:rgb(213,191,178);fill-rule:nonzero;stroke:rgb(213,191,178);stroke-width:1px;"/>
        </g>
        <path d="M228.6,280.4L200,272L220.2,262.7L228.6,280.4Z" style="fill:rgb(35,52,71);fill-rule:nonzero;stroke:rgb(35,52,71);stroke-width:1px;"/>
        <path d="M270.2,280.4L278.6,262.7L298.9,272L270.2,280.4Z" style="fill:rgb(35,52,71);fill-rule:nonzero;stroke:rgb(35,52,71);stroke-width:1px;"/>
        <g>
            <path d="M196,335.1L201,293.9L169.2,294.8L196,335.1Z" style="fill:rgb(204,98,40);fill-rule:nonzero;stroke:rgb(204,98,40);stroke-width:1px;"/>
            <path d="M297.8,293.9L302.7,335.1L329.6,294.8L297.8,293.9Z" style="fill:rgb(204,98,40);fill-rule:nonzero;stroke:rgb(204,98,40);stroke-width:1px;"/>
            <path d="M321.9,248.5L264.9,251.1L270.2,280.4L278.6,262.7L298.9,272L321.9,248.5Z" style="fill:rgb(204,98,40);fill-rule:nonzero;stroke:rgb(204,98,40);stroke-width:1px;"/>
            <path d="M200,272L220.2,262.7L228.6,280.4L233.9,251.1L176.9,248.5L200,272Z" style="fill:rgb(204,98,40);fill-rule:nonzero;stroke:rgb(204,98,40);stroke-width:1px;"/>
        </g>
        <g>
            <path d="M176.9,248.5L200.8,295.2L200,272L176.9,248.5Z" style="fill:rgb(226,117,37);fill-rule:nonzero;stroke:rgb(226,117,37);stroke-width:1px;"/>
            <path d="M298.9,272L298,295.2L321.9,248.5L298.9,272Z" style="fill:rgb(226,117,37);fill-rule:nonzero;stroke:rgb(226,117,37);stroke-width:1px;"/>
            <path d="M233.9,251.1L228.6,280.4L235.3,315L236.8,269.4L233.9,251.1Z" style="fill:rgb(226,117,37);fill-rule:nonzero;stroke:rgb(226,117,37);stroke-width:1px;"/>
            <path d="M264.9,251.1L262.1,269.3L263.5,315L270.2,280.4L264.9,251.1Z" style="fill:rgb(226,117,37);fill-rule:nonzero;stroke:rgb(226,117,37);stroke-width:1px;"/>
        </g>
        <path d="M270.2,280.4L263.5,315L268.3,318.4L298,295.2L298.9,272L270.2,280.4Z" style="fill:rgb(245,132,31);fill-rule:nonzero;stroke:rgb(245,132,31);stroke-width:1px;"/>
        <path d="M200,272L200.8,295.2L230.5,318.4L235.3,315L228.6,280.4L200,272Z" style="fill:rgb(245,132,31);fill-rule:nonzero;stroke:rgb(245,132,31);stroke-width:1px;"/>
        <path d="M270.8,350.3L271.1,340.8L268.5,338.6L230.3,338.6L227.8,340.8L228,350.3L196,335.1L207.2,344.3L229.9,360L268.8,360L291.6,344.3L302.7,335.1L270.8,350.3Z" style="fill:rgb(192,172,157);fill-rule:nonzero;stroke:rgb(192,172,157);stroke-width:1px;"/>
        <path d="M268.3,318.4L263.5,315L235.3,315L230.5,318.4L227.8,340.8L230.3,338.6L268.5,338.6L271.1,340.8L268.3,318.4Z" style="fill:rgb(22,22,22);fill-rule:nonzero;stroke:rgb(22,22,22);stroke-width:1px;"/>
        <g>
            <path d="M370.3,199.9L378.8,158.5L366,120L268.3,192.5L305.9,224.3L359,239.8L370.7,226.1L365.6,222.4L373.7,215L367.5,210.2L375.6,204L370.3,199.9Z" style="fill:rgb(118,62,26);fill-rule:nonzero;stroke:rgb(118,62,26);stroke-width:1px;"/>
            <path d="M120,158.5L128.6,199.9L123.1,204L131.3,210.2L125.1,215L133.2,222.4L128.1,226.1L139.8,239.8L192.9,224.3L230.5,192.5L132.8,120L120,158.5Z" style="fill:rgb(118,62,26);fill-rule:nonzero;stroke:rgb(118,62,26);stroke-width:1px;"/>
        </g>
        <path d="M359,239.8L305.9,224.3L321.9,248.5L298,295.2L329.6,294.8L376.8,294.8L359,239.8Z" style="fill:rgb(245,132,31);fill-rule:nonzero;stroke:rgb(245,132,31);stroke-width:1px;"/>
        <path d="M192.9,224.3L139.8,239.8L122.1,294.8L169.2,294.8L200.8,295.2L176.9,248.5L192.9,224.3Z" style="fill:rgb(245,132,31);fill-rule:nonzero;stroke:rgb(245,132,31);stroke-width:1px;"/>
        <path d="M264.9,251.1L268.3,192.5L283.7,150.8L215.1,150.8L230.5,192.5L233.9,251.1L235.2,269.5L235.3,315L263.5,315L263.6,269.5L264.9,251.1Z" style="fill:rgb(245,132,31);fill-rule:nonzero;stroke:rgb(245,132,31);stroke-width:1px;"/>
    </g>
</svg>
